HIERARCHY
ROOT Hips
{
	OFFSET 0.000000 8.830580 0.000000
	CHANNELS 6 Xposition Yposition Zposition Zrotation Yrotation Xrotation 
	JOINT Spine
	{
		OFFSET 0.000000 0.010000 0.000000
		CHANNELS 3 Zrotation Yrotation Xrotation
		JOINT Spine1
		{
			OFFSET 0.000000 2.459130 0.000000
			CHANNELS 3 Zrotation Yrotation Xrotation
			JOINT Neck
			{
				OFFSET 0.000000 2.484630 0.000000
				CHANNELS 3 Zrotation Yrotation Xrotation
				JOINT Head_virtual
				{
					OFFSET 0.000000 0.000000 0.000000
					CHANNELS 3 Zrotation Yrotation Xrotation
					JOINT Head
					{
						OFFSET 0.000000 0.927525 0.000000
						CHANNELS 3 Zrotation Yrotation Xrotation
						End Site
						{
							OFFSET 0.000000 0.000000 0.000000
						}
					}
				}
				JOINT LeftUpArm_virtual
				{
					OFFSET 0.000000 0.000000 0.000000
					CHANNELS 3 Zrotation Yrotation Xrotation
					JOINT LeftUpArm
					{
						OFFSET 1.248820 0.000000 0.000000
						CHANNELS 3 Zrotation Yrotation Xrotation
						JOINT LeftForeArm
						{
							OFFSET 2.597580 0.000000 0.000000
							CHANNELS 3 Zrotation Yrotation Xrotation
							JOINT LeftHand
							{
								OFFSET 2.455420 0.000000 0.000000
								CHANNELS 3 Zrotation Yrotation Xrotation
								End Site
								{
									OFFSET 0.000000 0.000000 0.000000
								}
							}
						}
					}
				}
				JOINT RightUpArm_virtual
				{
					OFFSET -0.000000 -0.000000 -0.000000
					CHANNELS 3 Zrotation Yrotation Xrotation
					JOINT RightUpArm
					{
						OFFSET -1.248820 -0.000000 -0.000000
						CHANNELS 3 Zrotation Yrotation Xrotation
						JOINT RightForeArm
						{
							OFFSET -2.597580 -0.000000 -0.000000
							CHANNELS 3 Zrotation Yrotation Xrotation
							JOINT RightHand
							{
								OFFSET -2.455420 -0.000000 -0.000000
								CHANNELS 3 Zrotation Yrotation Xrotation
								End Site
								{
									OFFSET 0.000000 0.000000 0.000000
								}
							}
						}
					}
				}
			}
		}
	}
	JOINT LeftUpLeg
	{
		OFFSET 1.271939 0.000000 0.000000
		CHANNELS 3 Zrotation Yrotation Xrotation
		JOINT LeftLowLeg
		{
			OFFSET 0.000000 -4.342910 0.000000
			CHANNELS 3 Zrotation Yrotation Xrotation
			JOINT LeftFoot
			{
				OFFSET 0.000000 -4.487670 0.000000
				CHANNELS 3 Zrotation Yrotation Xrotation
				JOINT LeftToeBase
				{
					OFFSET 0.000000 0.000000 1.515070
					CHANNELS 3 Zrotation Yrotation Xrotation
					End Site
					{
						OFFSET 0.000000 0.000000 0.000000
					}
				}
			}
		}
	}
	JOINT RightUpLeg
	{
		OFFSET -1.271939 0.000000 0.000000
		CHANNELS 3 Zrotation Yrotation Xrotation
		JOINT RightLowLeg
		{
			OFFSET 0.000000 -4.342910 0.000000
			CHANNELS 3 Zrotation Yrotation Xrotation
			JOINT RightFoot
			{
				OFFSET 0.000000 -4.487670 0.000000
				CHANNELS 3 Zrotation Yrotation Xrotation
				JOINT RightToeBase
				{
					OFFSET 0.000000 0.000000 1.515070
					CHANNELS 3 Zrotation Yrotation Xrotation
					End Site
					{
						OFFSET 0.000000 0.000000 0.000000
					}
				}
			}
		}
	}
}
MOTION
Frames: 17
Frame Time: 0.041667
-18.294528 9.169472 45.285316 -175.046420 -1.452261 -172.103050 3.244161 -2.135402 -11.079491 0.407316 -2.514247 5.708103 0.000000 0.000000 0.000000 -3.301446 1.037226 5.270961 7.351185 5.492931 -46.253490 -0.707663 16.235800 -4.952510 -8.155700 -2.883510 -30.831699 0.000000 -21.101700 0.000000 31.658400 9.231510 31.034201 8.275850 -13.988400 -3.124200 5.356110 2.059350 -34.228199 0.000000 26.240101 0.000000 -18.178801 -1.389970 28.251600 7.816789 -1.833465 -6.404272 0.000000 0.000000 7.736570 7.399922 1.566625 3.948178 0.000000 0.000000 -31.641701 1.035133 2.934369 -3.372156 0.000000 0.000000 5.512990 6.621507 -6.984606 9.145878 0.000000 0.000000 -27.238100 
-18.294504 9.169460 45.285487 -175.047572 -1.447188 -172.103122 3.243230 -2.141948 -11.066029 0.404964 -2.520416 5.678611 0.000000 0.000000 0.000000 -3.309629 1.052343 5.270403 7.384217 5.490079 -46.259057 -0.710781 16.221100 -4.941020 -8.153820 -2.863430 -30.844500 0.000000 -21.046499 0.000000 31.681700 9.124640 31.029499 8.273380 -13.976800 -3.101680 5.356300 2.048340 -34.216999 0.000000 26.252100 0.000000 -18.236601 -1.408020 28.354700 7.814773 -1.813043 -6.398537 0.000000 0.000000 7.726070 7.397642 1.547856 3.949843 0.000000 0.000000 -31.639000 1.033451 2.947446 -3.375701 0.000000 0.000000 5.517210 6.626126 -6.991312 9.140267 0.000000 0.000000 -27.229500 
-18.294584 9.169444 45.285754 -175.046771 -1.437306 -172.101493 3.241427 -2.137370 -11.057290 0.405383 -2.515377 5.661183 0.000000 0.000000 0.000000 -3.293511 1.041733 5.250109 7.403733 5.495933 -46.258837 -0.706739 16.214500 -4.950890 -8.174480 -2.866470 -30.841801 0.000000 -21.038401 0.000000 31.693199 9.114880 30.988800 8.276660 -13.970200 -3.109640 5.361770 2.048590 -34.261101 0.000000 26.229500 0.000000 -18.264400 -1.384350 28.488899 7.813215 -1.803718 -6.399364 0.000000 0.000000 7.726990 7.403546 1.552594 3.950453 0.000000 0.000000 -31.645399 1.032485 2.947339 -3.378074 0.000000 0.000000 5.511800 6.630198 -6.982215 9.145398 0.000000 0.000000 -27.237700 
-18.294646 9.169559 45.286004 -175.046105 -1.431442 -172.098852 3.241690 -2.137420 -11.043680 0.405890 -2.515533 5.636890 0.000000 0.000000 0.000000 -3.253020 0.997817 5.246957 7.362738 5.521365 -46.273922 -0.706007 16.222700 -4.942230 -8.200850 -2.882500 -30.879000 0.000000 -21.030701 0.000000 31.685900 9.031840 30.978800 8.273010 -13.974700 -3.097150 5.379820 2.016520 -34.251598 0.000000 26.287600 0.000000 -18.271299 -1.412860 28.586100 7.813582 -1.799730 -6.403262 0.000000 0.000000 7.729310 7.398998 1.551125 3.952050 0.000000 0.000000 -31.658800 1.031176 2.961058 -3.380398 0.000000 0.000000 5.505410 6.625313 -6.989031 9.153947 0.000000 0.000000 -27.236600 
-18.294910 9.169555 45.286614 -175.044604 -1.428936 -172.086255 3.244620 -2.134279 -11.028746 0.405537 -2.513256 5.580785 0.000000 0.000000 0.000000 -3.221830 0.963652 5.221635 7.383841 5.526452 -46.295741 -0.727885 16.185600 -4.932880 -8.211180 -2.871410 -30.931101 0.000000 -21.045300 0.000000 31.609900 9.089260 30.921900 8.266910 -13.975800 -3.092190 5.437960 1.968130 -34.311298 0.000000 26.373100 0.000000 -18.162701 -1.453840 28.308500 7.813204 -1.801250 -6.414613 0.000000 0.000000 7.721780 7.405285 1.561463 3.955472 0.000000 0.000000 -31.657801 1.029589 2.961480 -3.389312 0.000000 0.000000 5.490760 6.623558 -6.987487 9.163258 0.000000 0.000000 -27.240300 
-18.295087 9.169447 45.286845 -175.046330 -1.426985 -172.081486 3.243418 -2.133060 -11.030439 0.403478 -2.511667 5.572951 0.000000 0.000000 0.000000 -3.203856 0.941057 5.182157 7.392227 5.520353 -46.284724 -0.734948 16.157700 -4.924430 -8.201500 -2.861080 -30.900999 0.000000 -21.022100 0.000000 31.589800 9.073040 30.979099 8.269440 -13.968000 -3.100280 5.463880 1.968830 -34.362999 0.000000 26.340700 0.000000 -18.177900 -1.423600 28.244400 7.810984 -1.802301 -6.415327 0.000000 0.000000 7.712170 7.399857 1.559375 3.957168 0.000000 0.000000 -31.642599 1.025915 2.953448 -3.391230 0.000000 0.000000 5.480980 6.631015 -6.976628 9.164554 0.000000 0.000000 -27.240500 
-18.295127 9.169376 45.286873 -175.045877 -1.420172 -172.076632 3.239974 -2.134419 -11.033851 0.406764 -2.511829 5.565484 0.000000 0.000000 0.000000 -3.190875 0.933685 5.157381 7.384041 5.531727 -46.282543 -0.737112 16.150700 -4.934430 -8.208060 -2.863460 -30.886000 0.000000 -21.015900 0.000000 31.598200 9.092250 30.980801 8.300680 -13.951900 -3.106170 5.426910 1.993560 -34.369598 0.000000 26.242800 0.000000 -18.174200 -1.364930 28.269699 7.810197 -1.784440 -6.410562 0.000000 0.000000 7.696860 7.392590 1.545953 3.954241 0.000000 0.000000 -31.634600 1.024428 2.963655 -3.396098 0.000000 0.000000 5.479650 6.630404 -6.979749 9.162480 0.000000 0.000000 -27.242400 
-18.295195 9.169254 45.286888 -175.046032 -1.416325 -172.071798 3.237255 -2.131838 -11.039136 0.407412 -2.508375 5.556200 0.000000 0.000000 0.000000 -3.218723 0.977799 5.135652 7.437223 5.522105 -46.272179 -0.728344 16.145300 -4.930970 -8.230900 -2.878850 -30.902700 0.000000 -21.018200 0.000000 31.646000 9.077090 31.097000 8.303810 -13.932500 -3.111880 5.428450 1.958280 -34.270802 0.000000 26.240000 0.000000 -18.402800 -1.427730 28.808599 7.807903 -1.763526 -6.411990 0.000000 0.000000 7.691600 7.390830 1.532992 3.949616 0.000000 0.000000 -31.636000 1.022193 2.981994 -3.399318 0.000000 0.000000 5.474070 6.633723 -6.990227 9.160027 0.000000 0.000000 -27.243300 
-18.295291 9.169273 45.286795 -175.042739 -1.408528 -172.072244 3.237947 -2.134132 -11.043656 0.419542 -2.510596 5.553387 0.000000 0.000000 0.000000 -3.239462 1.005160 5.133606 7.439857 5.525694 -46.296069 -0.745012 16.139299 -4.936080 -8.235260 -2.885160 -30.900801 0.000000 -21.017599 0.000000 31.613400 9.068830 31.029499 8.323700 -13.910300 -3.102560 5.382730 1.958570 -34.250900 0.000000 26.169300 0.000000 -18.190100 -1.318140 28.339100 7.810235 -1.757921 -6.406278 0.000000 0.000000 7.686620 7.393012 1.531720 3.952214 0.000000 0.000000 -31.660700 1.024236 2.985388 -3.395794 0.000000 0.000000 5.467460 6.632863 -6.986838 9.167174 0.000000 0.000000 -27.230900 
-18.295421 9.169231 45.286799 -175.041142 -1.397628 -172.072530 3.241885 -2.131669 -11.050343 0.422373 -2.509264 5.548427 0.000000 0.000000 0.000000 -3.270704 1.050711 5.102770 7.488235 5.512182 -46.281276 -0.749859 16.134300 -4.934800 -8.233970 -2.912590 -30.801500 0.000000 -20.990801 0.000000 31.644199 9.065810 31.001400 8.317570 -13.902300 -3.083260 5.429270 1.974060 -34.353901 0.000000 26.187099 0.000000 -18.195200 -1.297140 28.322001 7.807965 -1.736824 -6.400313 0.000000 0.000000 7.681360 7.407196 1.529996 3.951210 0.000000 0.000000 -31.653200 1.024109 2.979042 -3.394893 0.000000 0.000000 5.464440 6.629276 -6.973916 9.168431 0.000000 0.000000 -27.235800 
-18.295421 9.169231 45.286799 -175.041142 -1.397628 -172.072530 3.241885 -2.131669 -11.050343 0.422373 -2.509264 5.548427 0.000000 0.000000 0.000000 -3.270704 1.050711 5.102770 7.488235 5.512182 -46.281276 -0.749859 16.134300 -4.934800 -8.233970 -2.912590 -30.801500 0.000000 -20.990801 0.000000 31.644199 9.065810 31.001400 8.317570 -13.902300 -3.083260 5.429270 1.974060 -34.353901 0.000000 26.187099 0.000000 -18.195200 -1.297140 28.322001 7.807965 -1.736824 -6.400313 0.000000 0.000000 7.681360 7.407196 1.529996 3.951210 0.000000 0.000000 -31.653200 1.024109 2.979042 -3.394893 0.000000 0.000000 5.464440 6.629276 -6.973916 9.168431 0.000000 0.000000 -27.235800 
-18.295742 9.169344 45.286758 -175.046707 -1.395368 -172.069969 3.244345 -2.131502 -11.058448 0.416760 -2.509813 5.543154 0.000000 0.000000 0.000000 -3.281988 1.079038 5.092222 7.512439 5.520006 -46.278430 -0.760510 16.122000 -4.915520 -8.224450 -2.933580 -30.775900 0.000000 -20.977400 0.000000 31.669500 9.061240 31.021200 8.325550 -13.906100 -3.099260 5.485490 1.982040 -34.392700 0.000000 26.301901 0.000000 -18.385401 -1.420660 28.859301 7.803678 -1.781571 -6.395425 0.000000 0.000000 7.668540 7.392078 1.562321 3.966176 0.000000 0.000000 -31.648899 1.017545 2.966394 -3.391880 0.000000 0.000000 5.452590 6.628918 -6.962758 9.174901 0.000000 0.000000 -27.228100 
-18.295821 9.169332 45.286735 -175.045964 -1.394482 -172.067649 3.246771 -2.131790 -11.063354 0.420247 -2.510704 5.532738 0.000000 0.000000 0.000000 -3.207559 0.993376 5.088550 7.405134 5.556278 -46.240199 -0.771226 16.107000 -4.909750 -8.232020 -2.946390 -30.852501 0.000000 -20.982201 0.000000 31.676599 9.043260 31.000799 8.322920 -13.994100 -3.103760 5.514930 2.095130 -34.320999 0.000000 26.346201 0.000000 -18.343399 -1.452580 28.970900 7.803759 -1.772389 -6.400845 0.000000 0.000000 7.676370 7.392649 1.553984 3.959158 0.000000 0.000000 -31.637800 1.017640 2.960008 -3.394254 0.000000 0.000000 5.452890 6.619789 -6.959794 9.177029 0.000000 0.000000 -27.239300 
-18.295953 9.169182 45.286588 -175.046152 -1.396362 -172.070921 3.246774 -2.137404 -11.074102 0.425519 -2.516079 5.544392 0.000000 0.000000 0.000000 -3.180846 0.957011 5.088041 7.371996 5.562114 -46.230896 -0.785053 16.118999 -4.913440 -8.240900 -2.984020 -30.914499 0.000000 -20.988300 0.000000 31.741800 9.066160 30.970900 8.348220 -13.982400 -3.091770 5.493060 2.123730 -34.333900 0.000000 26.330799 0.000000 -18.238800 -1.458520 28.973900 7.800103 -1.751844 -6.402065 0.000000 0.000000 7.686360 7.413875 1.547474 3.951644 0.000000 0.000000 -31.652700 1.016431 2.964001 -3.390832 0.000000 0.000000 5.454660 6.629464 -6.960170 9.170870 0.000000 0.000000 -27.237300 
-18.296081 9.169119 45.286602 -175.046912 -1.400069 -172.078389 3.244084 -2.136094 -11.081498 0.436797 -2.513813 5.560047 0.000000 0.000000 0.000000 -3.172899 0.944031 5.086852 7.397287 5.553358 -46.235962 -0.805156 16.103100 -4.915960 -8.246730 -3.007290 -30.911501 0.000000 -20.991501 0.000000 31.764799 9.029870 30.944201 8.368090 -13.959600 -3.095790 5.475360 2.095650 -34.299599 0.000000 26.328899 0.000000 -18.224001 -1.428370 28.916500 7.799903 -1.753249 -6.400849 0.000000 0.000000 7.696760 7.390856 1.533977 3.940615 0.000000 0.000000 -31.638700 1.015241 2.962499 -3.385790 0.000000 0.000000 5.461660 6.638224 -6.956738 9.162984 0.000000 0.000000 -27.249000 
-18.296084 9.169071 45.286421 -175.046562 -1.414479 -172.096917 3.236146 -2.145011 -11.084765 0.461664 -2.519905 5.594507 0.000000 0.000000 0.000000 -3.166186 0.923181 5.074952 7.389985 5.544149 -46.256337 -0.822368 16.094200 -4.914800 -8.263900 -3.028140 -30.867901 0.000000 -20.981701 0.000000 31.724800 9.027360 30.903900 8.348870 -13.962500 -3.079720 5.521160 2.110180 -34.358002 0.000000 26.330000 0.000000 -18.265301 -1.419700 28.884199 7.803071 -1.775041 -6.386948 0.000000 0.000000 7.699390 7.378555 1.533535 3.936512 0.000000 0.000000 -31.651600 1.016374 2.993727 -3.368843 0.000000 0.000000 5.470310 6.650175 -6.991463 9.152342 0.000000 0.000000 -27.235500 
-18.296405 9.168949 45.286767 -175.047162 -1.419061 -172.109270 3.253528 -2.146340 -11.080172 0.437995 -2.527057 5.622956 0.000000 0.000000 0.000000 -3.125514 0.886189 5.057325 7.357888 5.574903 -46.275422 -0.829879 16.102301 -4.895860 -8.253680 -3.060280 -30.805300 0.000000 -20.940500 0.000000 31.666599 9.062730 30.911400 8.368220 -13.963500 -3.045020 5.511240 2.124190 -34.277302 0.000000 26.313499 0.000000 -18.271099 -1.437160 28.879200 7.800254 -1.774854 -6.377823 0.000000 0.000000 7.698200 7.396403 1.532523 3.939011 0.000000 0.000000 -31.632200 1.014485 2.979283 -3.358655 0.000000 0.000000 5.472000 6.657336 -6.980768 9.152242 0.000000 0.000000 -27.234500 
